# xmcd CD database file
#
# Track frame offsets:
#	150
#	14622
#	28870
#	61668
#	89423
#	103945
#	118688
#	137985
#	152196
#	165786
#	197613
#	211831
#	228403
#	261249
#	275779
#	289445
#	302321
#	316416
#
# Disc length: 4415 seconds
#
# Revision: 3
# Processed by: cddbd v1.5.2PL0 Copyright (c) Steve Scherf et al.
# Submitted via: CDex 1.51
#
DISCID=04113d12
DTITLE=Dixieland - War of the Roses CD2
DYEAR=1900
DGENRE=Jazz
TTITLE0=Sing On - Eric Batty's Jazz Aces
TTITLE1=Keeping Cool With Lemonade - Eric Batty's Jazz Aces
TTITLE2=Last Mile Of The Way - Eric Batty's Jazz Aces
TTITLE3=Saratoga Swing - Eric Batty's Jazz Aces
TTITLE4=The Whispering Pines Of Nevada - Eric Batty's Jazz Aces
TTITLE5=Madame Beccasine - Eric Batty's Jazz Aces
TTITLE6=The Way I Feel This Morning - Eric Batty's Jazz Aces
TTITLE7=Cindy Oh Cindy - Eric Batty's Jazz Aces
TTITLE8=College Rag - Eric Batty's Jazz Aces
TTITLE9=East Coast Trot - Eric Batty's Jazz Aces
TTITLE10=Marching Through Georgia  - Eric Batty's Jazz Aces
TTITLE11=Deep Bayou Blues - Eric Batty's Jazz Aces
TTITLE12=Sarie Marais - Eric Batty's Jazz Aces
TTITLE13=One Sweet Letter From You - Eric Batty's Jazz Aces
TTITLE14=Palma - Dizzie Burton's Jazz Aces
TTITLE15=Blue Aces - Dizzie Burton's Jazz Aces
TTITLE16=333 Bourbon Street - Dizzie Burton's Jazz Aces
TTITLE17=The Curse Of An Aching Heart - Dizzie Burton's Jazz Aces
EXTD=
EXTT0=
EXTT1=
EXTT2=
EXTT3=
EXTT4=
EXTT5=
EXTT6=
EXTT7=
EXTT8=
EXTT9=
EXTT10=
EXTT11=
EXTT12=
EXTT13=
EXTT14=
EXTT15=
EXTT16=
EXTT17=
PLAYORDER=
